<svg width="64" height="64" viewBox="0 0 64 64" fill="none" xmlns="http://www.w3.org/2000/svg">
<circle cx="32" cy="32" r="23" fill="white"/>
<path d="M32 8C18.7656 8 8 18.7656 8 32C8 45.2344 18.7656 56 32 56C45.2344 56 56 45.2344 56 32C56 18.7656 45.2344 8 32 8ZM32 9.125C44.625 9.125 54.875 19.375 54.875 32C54.875 44.625 44.625 54.875 32 54.875C19.375 54.875 9.125 44.625 9.125 32C9.125 19.375 19.375 9.125 32 9.125ZM32 11.4375C24.8047 11.4375 18.4922 15.0938 14.8125 20.6875C15.2969 20.7031 15.7344 20.6875 16.125 20.6875C18.2812 20.6875 21.625 20.4375 21.625 20.4375C22.7344 20.375 22.8594 21.9922 21.75 22.125C21.75 22.125 20.6172 22.3125 19.375 22.375L26.875 44.625L31.375 31.125L28.1875 22.375C27.0781 22.3125 26 22.125 26 22.125C24.8906 22.0625 25.0156 20.375 26.125 20.4375C26.125 20.4375 29.5391 20.6875 31.5625 20.6875C33.7188 20.6875 37.0625 20.4375 37.0625 20.4375C38.1719 20.375 38.2969 21.9922 37.1875 22.125C37.1875 22.125 36.0469 22.3125 34.8125 22.375L42.25 44.5L44.3125 37.625C45.3516 34.9531 45.875 32.7031 45.875 30.9375C45.875 28.3906 44.9766 26.6797 44.1875 25.3125C43.1484 23.6172 42.1875 22.1328 42.1875 20.4375C42.1875 18.5469 43.6016 16.8125 45.625 16.8125C45.7188 16.8125 45.7812 16.8125 45.875 16.8125C42.2109 13.4531 37.3594 11.4375 32 11.4375ZM50.0625 22.125C50.1562 22.7812 50.1875 23.4922 50.1875 24.25C50.1875 26.3359 49.7969 28.6875 48.625 31.625L42.375 49.8125C48.5 46.2422 52.5625 39.5938 52.5625 32C52.5625 28.4219 51.6719 25.0547 50.0625 22.125ZM13.1875 23.625C12.0469 26.1797 11.4375 29.0156 11.4375 32C11.4375 40.1484 16.1328 47.1641 23 50.5L13.1875 23.625ZM32.375 33.8125L26.1875 51.75C28.0312 52.2891 29.9766 52.5625 32 52.5625C34.3984 52.5625 36.6719 52.1875 38.8125 51.4375C38.7578 51.3516 38.7266 51.2266 38.6875 51.125L32.375 33.8125Z" fill="black"/>
</svg>
